<svg width="10" height="6" viewBox="0 0 10 6" fill="none" xmlns="http://www.w3.org/2000/svg">
<path d="M9.85313 0.1469C9.80669 0.100344 9.75152 0.0634065 9.69079 0.0382042C9.63005 0.0130015 9.56494 2.86483e-05 9.49918 2.8654e-05C9.43342 2.86598e-05 9.36831 0.0130015 9.30758 0.0382043C9.24684 0.0634065 9.19167 0.100344 9.14524 0.1469L4.99987 4.29327L0.854501 0.146901C0.760629 0.0530284 0.633311 0.00029169 0.500556 0.000291701C0.367799 0.000291713 0.240481 0.0530285 0.146609 0.146901C0.0527368 0.240773 5.04943e-07 0.368092 5.16549e-07 0.500847C5.28155e-07 0.633603 0.0527368 0.76092 0.146609 0.854793L4.64592 5.35411C4.69236 5.40066 4.74753 5.4376 4.80827 5.4628C4.869 5.488 4.93411 5.50098 4.99987 5.50098C5.06563 5.50098 5.13074 5.488 5.19147 5.4628C5.25221 5.4376 5.30738 5.40066 5.35382 5.35411L9.85313 0.854792C9.89968 0.808353 9.93662 0.753186 9.96182 0.69245C9.98703 0.631714 10 0.566603 10 0.500846C10 0.435089 9.98703 0.369978 9.96182 0.309242C9.93662 0.248506 9.89968 0.193338 9.85313 0.1469Z" fill="#888888"/>
</svg>
