<svg width="7" height="12" viewBox="0 0 7 12" fill="none" xmlns="http://www.w3.org/2000/svg">
<path d="M6.42571 11.8253C6.48158 11.7695 6.52591 11.7033 6.55616 11.6304C6.58641 11.5575 6.60198 11.4794 6.60198 11.4005C6.60198 11.3215 6.58641 11.2434 6.55616 11.1705C6.52591 11.0976 6.48158 11.0314 6.42571 10.9757L1.44944 6.00061L6.42571 1.02553C6.53837 0.912871 6.60166 0.76007 6.60166 0.600743C6.60166 0.441415 6.53837 0.288615 6.42571 0.175954C6.31305 0.0632922 6.16025 6.84401e-07 6.00092 6.91366e-07C5.84159 6.9833e-07 5.68879 0.0632923 5.57613 0.175954L0.176267 5.57582C0.120393 5.63155 0.0760625 5.69776 0.0458156 5.77065C0.0155686 5.84354 -2.65758e-07 5.92169 -2.62309e-07 6.00061C-2.58859e-07 6.07952 0.0155686 6.15767 0.0458156 6.23056C0.0760626 6.30345 0.120393 6.36966 0.176267 6.4254L5.57613 11.8253C5.63186 11.8811 5.69807 11.9255 5.77097 11.9557C5.84386 11.986 5.922 12.0015 6.00092 12.0015C6.07984 12.0015 6.15798 11.986 6.23087 11.9557C6.30377 11.9255 6.36998 11.8811 6.42571 11.8253Z" fill="#333333"/>
</svg>
