<svg width="7" height="12" viewBox="0 0 7 12" fill="none" xmlns="http://www.w3.org/2000/svg">
<path d="M0.176341 11.8253C0.120466 11.7695 0.0761366 11.7033 0.0458894 11.6304C0.0156426 11.5575 7.29333e-05 11.4794 7.29298e-05 11.4005C7.29264e-05 11.3216 0.0156426 11.2434 0.0458893 11.1705C0.0761365 11.0976 0.120466 11.0314 0.176341 10.9757L5.15262 6.00061L0.176341 1.02553C0.0636792 0.912872 0.000387177 0.76007 0.00038717 0.600744C0.000387163 0.441416 0.0636792 0.288616 0.176341 0.175954C0.289001 0.0632928 0.441803 1.22295e-06 0.60113 1.21598e-06C0.760457 1.20902e-06 0.913258 0.0632928 1.02592 0.175954L6.42578 5.57582C6.48166 5.63155 6.52599 5.69776 6.55623 5.77065C6.58648 5.84354 6.60205 5.92169 6.60205 6.00061C6.60205 6.07952 6.58648 6.15767 6.55623 6.23056C6.52599 6.30345 6.48166 6.36966 6.42578 6.4254L1.02592 11.8253C0.970186 11.8811 0.903976 11.9255 0.831084 11.9557C0.758192 11.986 0.680049 12.0015 0.60113 12.0015C0.522212 12.0015 0.444068 11.986 0.371176 11.9557C0.298284 11.9255 0.232074 11.8811 0.176341 11.8253Z" fill="#333333"/>
</svg>
