<svg width="14" height="14" viewBox="0 0 14 14" fill="none" xmlns="http://www.w3.org/2000/svg">
<path d="M7.79263 12.6596C8.76422 12.4879 9.6785 12.0794 10.4545 11.4701C11.2306 10.8609 11.8444 10.0697 12.2418 9.16657C12.6391 8.26348 12.8077 7.27636 12.7326 6.29259C12.6574 5.30882 12.3409 4.35874 11.8111 3.52646C11.2273 2.61003 10.4056 1.86933 9.43368 1.38342C8.4618 0.897502 7.3762 0.684613 6.29278 0.767475C5.20936 0.850336 4.16877 1.22584 3.28208 1.8539C2.3954 2.48196 1.6959 3.339 1.25824 4.33355C0.820591 5.3281 0.661215 6.42283 0.797126 7.50089C0.933037 8.57894 1.35913 9.59985 2.02994 10.4547C2.70074 11.3095 3.59107 11.9661 4.60589 12.3544C5.62071 12.7428 6.72194 12.8482 7.79203 12.6596H7.79263Z" stroke="black" stroke-width="1.5"/>
<path d="M6.75049 6.7506V10.3508M6.75049 3.75043V3.15039" stroke="black" stroke-width="1.5" stroke-linecap="square"/>
</svg>
